<?xml version="1.0" standalone="no"?>
<!DOCTYPE svg PUBLIC "-//W3C//DTD SVG 20010904//EN"
 "http://www.w3.org/TR/2001/REC-SVG-20010904/DTD/svg10.dtd">
<svg version="1.0" xmlns="http://www.w3.org/2000/svg"
 width="900.000000pt" height="900.000000pt" viewBox="0 0 900.000000 900.000000"
 preserveAspectRatio="xMidYMid meet">

<g transform="translate(0.000000,900.000000) scale(0.100000,-0.100000)"
fill="#000000" stroke="none">
<path d="M1914 7724 c-54 -19 -120 -76 -145 -126 -65 -128 -8 -289 124 -349
41 -18 113 -19 2607 -19 l2565 0 51 24 c203 94 188 387 -23 466 -53 20 -79 20
-2596 19 -2201 0 -2548 -3 -2583 -15z"/>
<path d="M1935 6791 c-69 -17 -134 -71 -171 -141 -26 -49 -26 -162 0 -214 25
-50 72 -97 122 -122 38 -19 90 -19 2598 -22 1736 -1 2571 1 2597 8 99 27 179
134 179 240 0 100 -46 178 -132 226 l-53 29 -2555 2 c-1405 0 -2568 -2 -2585
-6z"/>
<path d="M1913 5844 c-65 -24 -128 -86 -152 -150 -25 -65 -26 -115 -6 -175 22
-63 66 -113 127 -143 l52 -26 2566 0 2566 0 52 26 c192 95 191 354 -2 457
l-41 22 -2560 2 c-2241 1 -2565 0 -2602 -13z"/>
<path d="M1930 4941 c-117 -36 -190 -134 -190 -255 1 -94 53 -176 145 -224
l50 -27 2560 0 c2091 0 2567 2 2597 13 21 7 60 33 87 58 58 52 85 113 85 190
0 102 -85 217 -182 244 -44 12 -5112 13 -5152 1z"/>
<path d="M1910 4040 c-66 -22 -140 -96 -158 -157 -15 -51 -15 -115 0 -165 15
-50 78 -122 132 -151 l41 -22 2575 0 2575 0 54 30 c99 55 155 169 132 272 -18
76 -65 140 -131 177 l-55 31 -2555 2 c-2484 2 -2557 2 -2610 -17z"/>
<path d="M1937 3136 c-190 -52 -260 -273 -133 -423 15 -18 50 -43 79 -57 l52
-26 2563 0 2563 0 49 21 c55 24 114 82 138 138 19 46 20 146 0 192 -23 53 -75
107 -132 137 l-51 27 -2540 2 c-2061 1 -2549 -1 -2588 -11z"/>
<path d="M1975 2167 c-67 -23 -101 -44 -142 -91 -45 -51 -63 -101 -63 -172 0
-71 15 -115 56 -162 49 -58 101 -91 224 -142 157 -66 220 -137 220 -250 0
-134 -110 -230 -265 -230 -62 0 -158 24 -203 51 -18 10 -35 19 -37 19 -1 0 -8
-14 -14 -31 -9 -27 -8 -34 6 -44 56 -41 210 -68 309 -54 179 25 278 132 277
299 0 61 -5 85 -26 125 -42 83 -95 123 -262 195 -169 74 -232 159 -206 273 25
107 103 161 236 160 58 0 95 -7 134 -22 29 -12 55 -20 56 -19 8 10 25 48 25
56 0 36 -246 65 -325 39z"/>
<path d="M4738 2008 c-27 -9 -28 -12 -28 -84 l0 -74 -70 0 -70 0 0 -30 c0 -29
0 -29 68 -32 l67 -3 5 -310 c5 -300 6 -311 28 -346 29 -48 82 -72 153 -72 81
1 99 9 99 43 l0 29 -55 -6 c-68 -7 -110 9 -133 51 -15 27 -17 67 -17 321 l0
290 108 3 107 3 0 29 0 30 -110 0 -110 0 0 85 c0 47 -3 85 -7 84 -5 0 -20 -5
-35 -11z"/>
<path d="M2722 1859 c-61 -12 -136 -56 -183 -107 -171 -184 -128 -543 77 -654
107 -58 235 -58 347 -2 137 70 204 208 195 404 -4 82 -10 108 -35 163 -73 155
-227 231 -401 196z m214 -95 c57 -35 109 -107 130 -182 25 -84 16 -221 -19
-289 -59 -115 -144 -173 -252 -173 -111 0 -200 63 -253 179 -22 49 -26 70 -26
161 0 95 2 111 28 168 32 70 103 141 158 160 18 6 68 10 110 8 65 -2 85 -7
124 -32z"/>
<path d="M3540 1861 c-63 -13 -129 -52 -170 -99 l-40 -47 0 68 0 67 -35 0 -35
0 0 -390 0 -390 40 0 40 0 0 253 c0 283 7 324 62 391 81 98 246 115 325 34 65
-67 68 -83 71 -395 l3 -283 40 0 41 0 -4 288 c-4 241 -7 294 -22 333 -23 61
-76 122 -129 148 -48 23 -135 33 -187 22z"/>
<path d="M4160 1856 c-113 -25 -148 -52 -122 -94 7 -10 19 -8 57 9 53 24 153
35 209 25 77 -15 135 -98 136 -193 l0 -53 -64 0 c-125 0 -271 -45 -335 -103
-38 -35 -71 -115 -71 -175 0 -121 73 -201 197 -218 88 -11 222 43 265 108 15
22 15 21 22 -35 7 -56 8 -57 39 -57 l32 0 -3 282 c-3 296 -9 347 -51 415 -28
44 -86 81 -150 93 -66 12 -91 12 -161 -4z m280 -475 c0 -106 -1 -110 -32 -157
-64 -95 -208 -135 -289 -81 -80 53 -93 183 -26 255 49 53 165 90 285 91 l62 1
0 -109z"/>
<path d="M6130 1861 c-66 -15 -110 -40 -160 -91 -27 -27 -51 -50 -54 -50 -3 0
-6 29 -6 65 l0 65 -37 0 -38 0 3 -550 2 -550 40 0 40 0 0 222 0 223 31 -38
c41 -50 101 -83 177 -98 190 -36 362 91 402 299 17 86 8 222 -20 294 -28 76
-104 159 -170 187 -55 24 -155 34 -210 22z m142 -73 c56 -17 122 -79 154 -146
22 -46 28 -76 32 -154 6 -120 -19 -213 -76 -279 -120 -140 -347 -110 -435 56
-17 33 -22 62 -25 162 -5 164 10 216 87 293 31 31 72 61 91 67 48 15 124 15
172 1z"/>
<path d="M6890 1861 c-179 -37 -290 -215 -277 -441 11 -201 123 -335 299 -359
73 -10 190 1 260 25 43 14 48 19 42 37 -10 35 -15 36 -94 15 -154 -40 -295 -5
-366 91 -40 54 -53 93 -61 179 l-6 62 287 0 286 0 1 28 c6 156 -55 283 -161
337 -52 26 -151 39 -210 26z m187 -93 c49 -33 93 -112 100 -183 l6 -55 -246 0
-246 0 5 33 c18 93 74 175 147 212 45 23 61 26 124 22 56 -3 81 -10 110 -29z"/>
<path d="M5083 1843 c3 -5 71 -174 152 -377 l147 -369 -17 -44 c-39 -103 -132
-210 -222 -256 l-41 -22 13 -33 14 -33 38 20 c108 55 173 129 247 276 37 75
287 684 332 808 l13 37 -44 0 c-30 0 -45 -4 -45 -13 0 -7 -18 -60 -41 -118
-33 -84 -175 -468 -196 -529 -3 -9 -13 8 -25 40 -11 30 -70 182 -131 337
l-112 283 -43 0 c-24 0 -41 -3 -39 -7z"/>
</g>
</svg>
